<?xml version="1.0" encoding="UTF-8" standalone="no"?>
<!-- Generator: Adobe Illustrator 18.0.0, SVG Export Plug-In . SVG Version: 6.00 Build 0)  -->

<svg
   version="1.1"
   id="Capa_1"
   x="0px"
   y="0px"
   viewBox="0 0 385.34484 385.34484"
   xml:space="preserve"
   width="612"
   height="612"
   xmlns="http://www.w3.org/2000/svg"
   xmlns:svg="http://www.w3.org/2000/svg"
   xmlns:rdf="http://www.w3.org/1999/02/22-rdf-syntax-ns#"
   xmlns:cc="http://creativecommons.org/ns#"
   xmlns:dc="http://purl.org/dc/elements/1.1/"><metadata
     id="metadata49"><rdf:RDF><cc:Work
         rdf:about=""><dc:format>image/svg+xml</dc:format><dc:type
           rdf:resource="http://purl.org/dc/dcmitype/StillImage" /></cc:Work></rdf:RDF></metadata><defs
     id="defs47" /><g
     id="g15"
     transform="translate(0,62.964844)" /><g
     id="g17"
     transform="translate(0,62.964844)" /><g
     id="g19"
     transform="translate(0,62.964844)" /><g
     id="g21"
     transform="translate(0,62.964844)" /><g
     id="g23"
     transform="translate(0,62.964844)" /><g
     id="g25"
     transform="translate(0,62.964844)" /><g
     id="g27"
     transform="translate(0,62.964844)" /><g
     id="g29"
     transform="translate(0,62.964844)" /><g
     id="g31"
     transform="translate(0,62.964844)" /><g
     id="g33"
     transform="translate(0,62.964844)" /><g
     id="g35"
     transform="translate(0,62.964844)" /><g
     id="g37"
     transform="translate(0,62.964844)" /><g
     id="g39"
     transform="translate(0,62.964844)" /><g
     id="g41"
     transform="translate(0,62.964844)" /><g
     id="g43"
     transform="translate(0,62.964844)" /><flowRoot
     xml:space="preserve"
     id="flowRoot3033"
     style="font-style:normal;font-weight:normal;line-height:0.01%;font-family:sans-serif;letter-spacing:0px;word-spacing:0px;fill:#ffffff;fill-opacity:1;stroke:none"
     transform="translate(0,62.964844)"><flowRegion
       id="flowRegion3035"
       style="font-family:sans-serif"><rect
         id="rect3037"
         width="143.18645"
         height="184.40678"
         x="162.71187"
         y="229.96609"
         style="font-size:40px;fill:#ffffff" /></flowRegion><flowPara
       id="flowPara3039"
       style="font-size:40px;line-height:1.25;font-family:sans-serif"> </flowPara></flowRoot><path
     d="m 124.96815,205.14574 c 0,0 -11.28402,-37.25251 10.48988,-59.02641 28.55338,-25.3319 47.12642,25.02892 59.6478,13.76772 18.47108,-9.64876 32.34255,-31.69609 53.19244,-13.76772 34.41557,41.67778 -0.80691,92.10989 -0.80691,92.10989 0,0 -7.72378,18.10629 -40.11582,0.26897 -13.50454,-7.43653 19.38763,-40.4767 4.94498,-45.86959 -7.38375,-2.75709 -12.18029,11.01141 -20.06199,11.01141 -7.88169,0 -12.29782,-11.4862 -19.68156,-8.72911 -14.44266,5.39289 14.70505,32.68606 3.80382,43.58729 -9.64556,9.64558 -37.0432,11.59211 -40.65379,-1.8828"
     style="font-style:normal;font-variant:normal;font-weight:normal;font-stretch:normal;font-size:250px;line-height:125%;font-family:'Gill Sans Ultra Bold';-inkscape-font-specification:'Gill Sans Ultra Bold';letter-spacing:0px;word-spacing:0px;fill:#ffffff;fill-opacity:1;stroke:none"
     id="path3050" /><g
     transform="translate(31.52642,31.438434)"
     id="g3895"><g
       id="g3891"><path
         d="m 66.945,51.904 c 6.903,0 12.5,-5.597 12.5,-12.5 0,-6.903 -5.597,-12.5 -12.5,-12.5 C 30.031,26.904 0,56.935 0,93.849 c 0,6.903 5.596,12.5 12.5,12.5 6.903,0 12.5,-5.597 12.5,-12.5 C 25,70.72 43.816,51.904 66.945,51.904 Z"
         id="path7"
         style="fill:#ffffff" /><path
         d="m 93.675,77.907 c 0,-6.903 -5.597,-12.5 -12.5,-12.5 -23.529,0 -42.672,19.142 -42.672,42.671 0,6.903 5.597,12.5 12.5,12.5 6.903,0 12.5,-5.597 12.5,-12.5 0,-9.744 7.928,-17.671 17.672,-17.671 6.903,0 12.5,-5.597 12.5,-12.5 z"
         id="path9"
         style="fill:#ffffff" /></g><g
       id="g3875"><path
         d="m 309.88,216.031 c -6.903,0 -12.5,5.597 -12.5,12.5 0,23.129 -18.816,41.945 -41.945,41.945 -6.903,0 -12.5,5.597 -12.5,12.5 0,6.903 5.597,12.5 12.5,12.5 36.914,0 66.945,-30.031 66.945,-66.945 0,-6.904 -5.597,-12.5 -12.5,-12.5 z"
         id="path11"
         style="fill:#ffffff" /><path
         d="m 283.877,214.302 c 0,-6.903 -5.597,-12.5 -12.5,-12.5 -6.903,0 -12.5,5.597 -12.5,12.5 0,9.744 -7.927,17.671 -17.671,17.671 -6.903,0 -12.5,5.597 -12.5,12.5 0,6.903 5.597,12.5 12.5,12.5 23.529,0 42.671,-19.141 42.671,-42.671 z"
         id="path13"
         style="fill:#ffffff" /></g><g
       id="g3879"
       transform="rotate(-95.067783,193.90893,161.09438)"><path
         style="fill:#ffffff"
         id="path3881"
         d="m 309.88,216.031 c -6.903,0 -12.5,5.597 -12.5,12.5 0,23.129 -18.816,41.945 -41.945,41.945 -6.903,0 -12.5,5.597 -12.5,12.5 0,6.903 5.597,12.5 12.5,12.5 36.914,0 66.945,-30.031 66.945,-66.945 0,-6.904 -5.597,-12.5 -12.5,-12.5 z" /><path
         style="fill:#ffffff"
         id="path3883"
         d="m 283.877,214.302 c 0,-6.903 -5.597,-12.5 -12.5,-12.5 -6.903,0 -12.5,5.597 -12.5,12.5 0,9.744 -7.927,17.671 -17.671,17.671 -6.903,0 -12.5,5.597 -12.5,12.5 0,6.903 5.597,12.5 12.5,12.5 23.529,0 42.671,-19.141 42.671,-42.671 z" /></g><g
       transform="rotate(77.178828,163.43424,113.22993)"
       id="g3885"><path
         d="m 309.88,216.031 c -6.903,0 -12.5,5.597 -12.5,12.5 0,23.129 -18.816,41.945 -41.945,41.945 -6.903,0 -12.5,5.597 -12.5,12.5 0,6.903 5.597,12.5 12.5,12.5 36.914,0 66.945,-30.031 66.945,-66.945 0,-6.904 -5.597,-12.5 -12.5,-12.5 z"
         id="path3887"
         style="fill:#ffffff" /><path
         d="m 283.877,214.302 c 0,-6.903 -5.597,-12.5 -12.5,-12.5 -6.903,0 -12.5,5.597 -12.5,12.5 0,9.744 -7.927,17.671 -17.671,17.671 -6.903,0 -12.5,5.597 -12.5,12.5 0,6.903 5.597,12.5 12.5,12.5 23.529,0 42.671,-19.141 42.671,-42.671 z"
         id="path3889"
         style="fill:#ffffff" /></g></g></svg>
